<svg width="48" xmlns="http://www.w3.org/2000/svg" height="48" fill="none"><defs><clipPath id="a" class="frame-clip frame-clip-def"><rect rx="0" ry="0" width="48" height="48" transform="matrix(1.000000, 0.000000, 0.000000, 1.000000, 0.000000, 0.000000)"/></clipPath></defs><g clip-path="url(#a)"><g class="fills"><rect rx="0" ry="0" width="48" height="48" transform="matrix(1.000000, 0.000000, 0.000000, 1.000000, 0.000000, 0.000000)" class="frame-background"/></g><g style="fill: rgb(0, 0, 0);" class="frame-children"><defs><radialGradient cx="0" cy="0" r="1" id="b" gradientUnits="userSpaceOnUse" gradientTransform="matrix(1.687500, 0.000000, 0.000000, 1.687500, -3.000000, -3.000000) translate(25.5 9) rotate(132.839) scale(37.5033)"><stop stop-color="#FFF478"/><stop offset=".475" stop-color="#FFB02E"/><stop offset="1" stop-color="#F70A8D"/></radialGradient></defs><path d="M23.998,47.621C39.750,47.621,47.621,37.045,47.621,23.998C47.621,10.951,39.750,0.375,23.998,0.375C8.246,0.375,0.375,10.951,0.375,23.998C0.375,37.045,8.246,47.621,23.998,47.621ZZ" fill="url(#b)" style="fill: url(&quot;#b&quot;);" class="fills"/><defs><radialGradient cx="0" cy="0" r="1" id="c" gradientUnits="userSpaceOnUse" gradientTransform="matrix(1.687500, 0.000000, 0.000000, 1.687500, -3.000000, -3.000000) translate(25.5 9) rotate(131.878) scale(38.9487)"><stop stop-color="#FFF478"/><stop offset=".475" stop-color="#FFB02E"/><stop offset="1" stop-color="#F70A8D"/></radialGradient></defs><path d="M23.998,47.621C39.750,47.621,47.621,37.045,47.621,23.998C47.621,10.951,39.750,0.375,23.998,0.375C8.246,0.375,0.375,10.951,0.375,23.998C0.375,37.045,8.246,47.621,23.998,47.621ZZ" fill="url(#c)" style="fill: url(&quot;#c&quot;);" class="fills"/><defs><radialGradient cx="0" cy="0" r="1" id="d" gradientUnits="userSpaceOnUse" gradientTransform="matrix(1.687500, 0.000000, 0.000000, 1.687500, -3.000000, -3.000000) translate(16 12.5) rotate(101.31) scale(17.8466 22.8581)"><stop offset=".788" stop-color="#F59639" stop-opacity="0"/><stop offset=".973" stop-color="#FF7DCE"/></radialGradient></defs><path d="M23.998,47.621C39.750,47.621,47.621,37.045,47.621,23.998C47.621,10.951,39.750,0.375,23.998,0.375C8.246,0.375,0.375,10.951,0.375,23.998C0.375,37.045,8.246,47.621,23.998,47.621ZZ" fill="url(#d)" style="fill: url(&quot;#d&quot;);" class="fills"/><defs><radialGradient cx="0" cy="0" r="1" id="e" gradientUnits="userSpaceOnUse" gradientTransform="matrix(1.687500, 0.000000, 0.000000, 1.687500, -3.000000, -3.000000) translate(18 14) rotate(135) scale(41.0122)"><stop offset=".315" stop-opacity="0"/><stop offset="1"/></radialGradient></defs><path d="M23.998,47.621C39.750,47.621,47.621,37.045,47.621,23.998C47.621,10.951,39.750,0.375,23.998,0.375C8.246,0.375,0.375,10.951,0.375,23.998C0.375,37.045,8.246,47.621,23.998,47.621ZZ" fill="url(#e)" fill-opacity=".6" style="fill: url(&quot;#e&quot;); fill-opacity: 0.6;" class="fills"/><defs><radialGradient cx="0" cy="0" r="1" id="f" gradientUnits="userSpaceOnUse" gradientTransform="matrix(1.687500, 0.000000, 0.000000, 1.687500, -3.000000, -3.000000) translate(16 17) rotate(77.692) scale(28.1469)"><stop offset=".508" stop-color="#7D6133" stop-opacity="0"/><stop offset="1" stop-color="#715B32"/></radialGradient></defs><path d="M23.998,47.621C39.750,47.621,47.621,37.045,47.621,23.998C47.621,10.951,39.750,0.375,23.998,0.375C8.246,0.375,0.375,10.951,0.375,23.998C0.375,37.045,8.246,47.621,23.998,47.621ZZ" fill="url(#f)" style="fill: url(&quot;#f&quot;);" class="fills"/><defs><radialGradient cx="0" cy="0" r="1" id="g" gradientUnits="userSpaceOnUse" gradientTransform="matrix(1.687500, 0.000000, 0.000000, 1.687500, -3.000000, -3.000000) translate(16.5 16.5) rotate(55.7131) scale(13.3135 9.65032)"><stop stop-color="#FFB849"/><stop offset="1" stop-color="#FFB847" stop-opacity="0"/></radialGradient></defs><path d="M23.998,47.621C39.750,47.621,47.621,37.045,47.621,23.998C47.621,10.951,39.750,0.375,23.998,0.375C8.246,0.375,0.375,10.951,0.375,23.998C0.375,37.045,8.246,47.621,23.998,47.621ZZ" fill="url(#g)" style="fill: url(&quot;#g&quot;);" class="fills"/><defs><radialGradient cx="0" cy="0" r="1" id="h" gradientUnits="userSpaceOnUse" gradientTransform="matrix(1.687500, 0.000000, 0.000000, 1.687500, -3.000000, -3.000000) translate(20.5 18) rotate(9.86581) scale(11.6726)"><stop stop-color="#FFA64B"/><stop offset=".9" stop-color="#FFAE46" stop-opacity="0"/></radialGradient></defs><path d="M23.998,47.621C39.750,47.621,47.621,37.045,47.621,23.998C47.621,10.951,39.750,0.375,23.998,0.375C8.246,0.375,0.375,10.951,0.375,23.998C0.375,37.045,8.246,47.621,23.998,47.621ZZ" fill="url(#h)" style="fill: url(&quot;#h&quot;);" class="fills"/><defs><radialGradient cx="0" cy="0" r="1" id="i" gradientUnits="userSpaceOnUse" gradientTransform="matrix(1.687500, 0.000000, 0.000000, 1.687500, -3.000000, -3.000000) translate(17.5 15) rotate(43.9708) scale(59.0529)"><stop offset=".185" stop-opacity="0"/><stop offset="1" stop-opacity=".4"/></radialGradient></defs><path d="M23.998,47.621C39.750,47.621,47.621,37.045,47.621,23.998C47.621,10.951,39.750,0.375,23.998,0.375C8.246,0.375,0.375,10.951,0.375,23.998C0.375,37.045,8.246,47.621,23.998,47.621ZZ" fill="url(#i)" style="fill: url(&quot;#i&quot;);" class="fills"/><defs><linearGradient x1="11.2" y1="16.75" x2="10.965" y2="18.161" id="j" gradientUnits="userSpaceOnUse" gradientTransform="matrix(1.687500, 0.000000, 0.000000, 1.687500, -3.000000, -3.000000)"><stop stop-color="#52383E"/><stop offset="1" stop-color="#432A35"/></linearGradient></defs><path d="M8.813,25.688C8.813,25.688,10.500,27.375,13.875,27.375C17.250,27.375,18.938,25.688,18.938,25.688" fill="none" stroke="url(#j)" stroke-width="3" stroke-linejoin="round" style="fill: none;" class="fills"/><defs><linearGradient x1="23.2" y1="16.75" x2="22.965" y2="18.161" id="k" gradientUnits="userSpaceOnUse" gradientTransform="matrix(1.687500, 0.000000, 0.000000, 1.687500, -3.000000, -3.000000)"><stop stop-color="#52383E"/><stop offset="1" stop-color="#432A35"/></linearGradient></defs><path d="M29.063,25.688C29.063,25.688,30.750,27.375,34.125,27.375C37.500,27.375,39.188,25.688,39.188,25.688" fill="none" stroke="url(#k)" stroke-width="3" stroke-linejoin="round" style="fill: none;" class="fills"/><defs><radialGradient cx="0" cy="0" r="1" id="l" gradientUnits="userSpaceOnUse" gradientTransform="matrix(1.687500, 0.000000, 0.000000, 1.687500, -3.000000, -3.000000) translate(16 26.8889) rotate(-90) scale(4.88889)"><stop stop-color="#F70A8D"/><stop offset="1" stop-color="#89029C"/></radialGradient></defs><path d="M20.625,37.500C20.625,35.749,22.038,34.125,24.000,34.125L24.004,34.125C25.966,34.125,27.375,35.732,27.375,37.501L27.375,37.504C27.375,39.259,25.970,40.875,24.003,40.875L24.004,40.875C22.025,40.875,20.625,39.268,20.625,37.500ZL20.625,37.500Z" fill="url(#l)" style="fill: url(&quot;#l&quot;);" class="fills"/><defs><radialGradient cx="0" cy="0" r="1" id="m" gradientUnits="userSpaceOnUse" gradientTransform="matrix(1.687500, 0.000000, 0.000000, 1.687500, -3.000000, -3.000000) translate(16.5 11.5) rotate(-21.8014) scale(8.07775 5.76555)"><stop stop-color="#EFA031"/><stop offset="1" stop-color="#F0A83E" stop-opacity="0"/></radialGradient></defs><rect width="33.75" height="33.75" x="10.5" transform="matrix(1.000000, 0.000000, 0.000000, 1.000000, 0.000000, 0.000000)" style="fill: url(&quot;#m&quot;);" ry="10" fill="url(#m)" rx="10" y="-3" class="fills"/><defs><linearGradient x1="24" y1="8.5" x2="28" y2="6.5" id="n" gradientUnits="userSpaceOnUse" gradientTransform="matrix(1.687500, 0.000000, 0.000000, 1.687500, -3.000000, -3.000000)"><stop stop-color="#2C80E2"/><stop offset="1" stop-color="#00A6ED"/></linearGradient></defs><path d="M45.566,1.007C45.979,1.521,46.054,2.228,45.759,2.817L42.338,9.660L45.528,8.863C46.432,8.637,47.349,9.187,47.575,10.091C47.801,10.995,47.251,11.911,46.347,12.137L39.597,13.825C38.957,13.984,38.284,13.757,37.871,13.243C37.459,12.729,37.383,12.022,37.678,11.433L41.100,4.589L37.909,5.387C37.005,5.613,36.089,5.063,35.863,4.159C35.637,3.255,36.187,2.339,37.091,2.113L43.841,0.425C44.480,0.266,45.154,0.492,45.566,1.007ZZ" fill="url(#n)" fill-rule="evenodd" clip-rule="evenodd" style="fill: url(&quot;#n&quot;);" class="fills"/><defs><radialGradient cx="0" cy="0" r="1" id="o" gradientUnits="userSpaceOnUse" gradientTransform="matrix(1.687500, 0.000000, 0.000000, 1.687500, -3.000000, -3.000000) translate(29 7.5) rotate(164.055) scale(3.64006 0.840972)"><stop stop-color="#63BEFE"/><stop offset="1" stop-color="#63BEFE" stop-opacity="0"/></radialGradient></defs><path d="M45.566,1.007C45.979,1.521,46.054,2.228,45.759,2.817L42.338,9.660L45.528,8.863C46.432,8.637,47.349,9.187,47.575,10.091C47.801,10.995,47.251,11.911,46.347,12.137L39.597,13.825C38.957,13.984,38.284,13.757,37.871,13.243C37.459,12.729,37.383,12.022,37.678,11.433L41.100,4.589L37.909,5.387C37.005,5.613,36.089,5.063,35.863,4.159C35.637,3.255,36.187,2.339,37.091,2.113L43.841,0.425C44.480,0.266,45.154,0.492,45.566,1.007ZZ" fill="url(#o)" fill-rule="evenodd" clip-rule="evenodd" style="fill: url(&quot;#o&quot;);" class="fills"/><defs><radialGradient cx="0" cy="0" r="1" id="p" gradientUnits="userSpaceOnUse" gradientTransform="matrix(1.687500, 0.000000, 0.000000, 1.687500, -3.000000, -3.000000) translate(28 2.5) rotate(45) scale(1.41421)"><stop stop-color="#63BEFE"/><stop offset="1" stop-color="#4FB5FC" stop-opacity="0"/></radialGradient></defs><path d="M41.004,1.134L43.841,0.425C44.480,0.266,45.154,0.492,45.566,1.007C45.979,1.521,46.054,2.228,45.759,2.817L44.452,5.432C44.385,5.435,44.318,5.438,44.250,5.438C42.386,5.438,40.875,3.926,40.875,2.063C40.875,1.741,40.920,1.429,41.004,1.134ZZ" fill="url(#p)" fill-rule="evenodd" clip-rule="evenodd" style="fill: url(&quot;#p&quot;);" class="fills"/><path d="M29.063,7.969C29.063,7.503,29.440,7.125,29.906,7.125L34.969,7.125C35.288,7.125,35.580,7.306,35.723,7.591C35.866,7.877,35.835,8.219,35.644,8.475L31.594,13.875L34.969,13.875C35.435,13.875,35.813,14.253,35.813,14.719C35.813,15.185,35.435,15.563,34.969,15.563L29.906,15.563C29.587,15.563,29.295,15.382,29.152,15.096C29.009,14.810,29.040,14.468,29.231,14.212L33.281,8.813L29.906,8.813C29.440,8.813,29.063,8.435,29.063,7.969ZZ" fill-rule="evenodd" clip-rule="evenodd" style="fill: rgb(0, 166, 237);" class="fills"/><path d="M20.668,11.077C20.816,10.635,21.294,10.396,21.736,10.543L26.798,12.231C27.114,12.336,27.338,12.617,27.371,12.948C27.404,13.279,27.239,13.599,26.950,13.764L22.682,16.203L25.954,17.293C26.396,17.441,26.635,17.919,26.488,18.361C26.341,18.803,25.863,19.042,25.421,18.894L20.358,17.207C20.042,17.102,19.818,16.821,19.785,16.489C19.753,16.158,19.917,15.839,20.206,15.674L24.474,13.235L21.202,12.144C20.760,11.997,20.521,11.519,20.668,11.077ZZ" fill-rule="evenodd" clip-rule="evenodd" style="fill: rgb(0, 166, 237);" class="fills"/></g></g></svg>